<?xml version="1.0" encoding="UTF-8" standalone="no"?><!DOCTYPE svg PUBLIC "-//W3C//DTD SVG 1.1//EN" "http://www.w3.org/Graphics/SVG/1.1/DTD/svg11.dtd"><svg width="100%" height="100%" viewBox="0 0 16 16" version="1.1" xmlns="http://www.w3.org/2000/svg" xmlns:xlink="http://www.w3.org/1999/xlink" xml:space="preserve" xmlns:serif="http://www.serif.com/" style="fill-rule:evenodd;clip-rule:evenodd;stroke-linejoin:round;stroke-miterlimit:2;"><rect id="auto-layout-horizontal" x="0" y="0" width="16" height="16" style="fill:none;"/><path d="M5.5,6l0.5,0.5l-0,3l-0.5,0.5l-4,-0l-0.5,-0.5l-0,-3l0.5,-0.5l4,-0Zm-3.5,1l0,2l3,-0l-0,-2l-3,0Z"/><path d="M7,8.5l-2,-0l0,-1l0.5,-0l1.5,-0c0,-0 0,-2.427 -0,-3.5l0.5,-0.5c0.853,-0 2.5,-0 2.5,-0l-0,1l-0.5,-0l-1.5,0l-0,3.5l0,0.5l0,3l2,-0l-0,1c-0,-0 -1.647,-0 -2.5,-0l-0.5,-0.5c0,-1.073 0,-3.5 0,-3.5Z"/><path d="M14.5,10l0.5,0.5l-0,3l-0.5,0.5l-4,-0l-0.5,-0.5l-0,-3l0.5,-0.5l4,-0Zm-3.5,1l-0,2l3,-0l-0,-2l-3,0Z"/><path d="M14.5,2l0.5,0.5l0,3l-0.5,0.5l-4,-0l-0.5,-0.5l-0,-3l0.5,-0.5l4,-0Zm-3.5,1l-0,2l3,-0l-0,-2l-3,0Z"/></svg>