<?xml version="1.0" encoding="UTF-8" standalone="no"?><!DOCTYPE svg PUBLIC "-//W3C//DTD SVG 1.1//EN" "http://www.w3.org/Graphics/SVG/1.1/DTD/svg11.dtd"><svg width="100%" height="100%" viewBox="0 0 24 24" version="1.1" xmlns="http://www.w3.org/2000/svg" xmlns:xlink="http://www.w3.org/1999/xlink" xml:space="preserve" xmlns:serif="http://www.serif.com/" style="fill-rule:evenodd;clip-rule:evenodd;stroke-linejoin:round;stroke-miterlimit:2;"><rect id="external-file-jump" x="0" y="0" width="24" height="24" style="fill:none;"/><g id="external-file-jump1" serif:id="external-file-jump"><path d="M11.5,15.793l-0,-8.293c-0,-0.828 -0.672,-1.5 -1.5,-1.5l-10,0l0,-1l10,0c1.381,0 2.5,1.119 2.5,2.5l-0,8.293l1.621,-1.621c0.196,-0.196 0.512,-0.196 0.707,-0c0.196,0.195 0.196,0.511 0,0.707l-2.474,2.475c-0.096,0.095 -0.223,0.146 -0.354,0.146c-0.131,-0 -0.258,-0.051 -0.354,-0.146l-2.474,-2.475c-0.196,-0.196 -0.196,-0.512 -0,-0.707c0.195,-0.196 0.511,-0.196 0.707,-0l1.621,1.621Z"/><path d="M13,12.092c4.149,0.234 7.37,1.91 7.37,3.94c0,2.19 -3.75,3.968 -8.37,3.968c-4.62,0 -8.37,-1.778 -8.37,-3.968c-0,-2.03 3.221,-3.706 7.37,-3.94l0,2.494l-0.768,-0.768c-0.39,-0.391 -1.023,-0.391 -1.414,0c-0.391,0.391 -0.391,1.024 0,1.414l2.475,2.475c0.047,0.048 0.099,0.09 0.153,0.126l0.173,0.092c0.121,0.049 0.25,0.075 0.381,0.075c0.131,-0 0.26,-0.026 0.381,-0.075l0.173,-0.092c0.054,-0.036 0.106,-0.078 0.153,-0.126l2.475,-2.475c0.391,-0.39 0.391,-1.023 -0,-1.414c-0.391,-0.391 -1.024,-0.391 -1.414,0l-0.768,0.768l-0,-2.494Z"/></g></svg>