<?xml version="1.0" encoding="UTF-8" standalone="no"?><!DOCTYPE svg PUBLIC "-//W3C//DTD SVG 1.1//EN" "http://www.w3.org/Graphics/SVG/1.1/DTD/svg11.dtd"><svg width="100%" height="100%" viewBox="0 0 16 16" version="1.1" xmlns="http://www.w3.org/2000/svg" xmlns:xlink="http://www.w3.org/1999/xlink" xml:space="preserve" xmlns:serif="http://www.serif.com/" style="fill-rule:evenodd;clip-rule:evenodd;stroke-linejoin:round;stroke-miterlimit:2;"><rect id="lock" x="-0" y="-0" width="16" height="16" style="fill:none;"/><path d="M13,7l-1,-0l-0,-2c-0,-2.194 -1.806,-4 -4,-4c-2.194,-0 -4,1.806 -4,4l-0,2l-1,-0l-1,1l-0,6l1,1l10,-0l1,-1l-0,-6l-1,-1Zm-8,-2c-0,-1.646 1.354,-3 3,-3c1.646,-0 3,1.354 3,3l-0,2l-6,-0l-0,-2Zm8,9l-10,-0l-0,-6l10,-0l-0,6Z" style="fill-rule:nonzero;"/></svg>