<svg clip-rule="evenodd" fill-rule="evenodd" stroke-linejoin="round" stroke-miterlimit="2" viewBox="0 0 24 24" xmlns="http://www.w3.org/2000/svg" xmlns:xlink="http://www.w3.org/1999/xlink"><clipPath id="a"><path clip-rule="evenodd" d="m0 0h24v24h-24z"/></clipPath><path d="m0 0h24v24h-24z" fill="none"/><g clip-path="url(#a)" fill-rule="nonzero"><path d="m18.046 15.16c.283.503.604 1.074.929 1.724 1.12 2.239 1.027 4.203.438 5.156-.291.471-.711.72-1.212.72-.006 0-.012.001-.018.001l-9.039.659c.103-.108.198-.232.283-.369.792-1.281.624-3.542-.417-5.624-.205-.409-.405-.782-.597-1.13-.002-.004-.004-.008-.006-.011-.116-.211-.23-.414-.337-.604-1.101-1.958-1.717-3.055-.902-5.431l2.118-.155h.001l.215-.016 4.32-.315.022-.001 3.193-.233.005.006c-.778 2.451-.06 3.731 1.004 5.623m-10.022 8.342-.228.017c-.437-.002-.743-.119-.936-.358-.45-.558-.3-1.799-.037-3.118 0-.004.001-.007.002-.011.039-.197.081-.396.124-.594.246-1.147.153-2-.279-2.533-.041-.052-.085-.098-.129-.14l1.519-.111c.168.308.343.635.519.988 1.12 2.239 1.027 4.203.438 5.156-.248.401-.588.641-.993.704m-1.546-4.166c-.031.144-.061.287-.09.428l-2.2.16c-.272-1.326.051-2.097.381-2.515.329-.418.734-.569.926-.569.152 0 .533.035.801.367.331.409.394 1.146.182 2.129m1.885-12.897c-.259 1.121-.769 2.557-1.064 3.319l-.036.003c.167-1.446.432-2.627.689-3.455zm.128-1.387c.001.002.002.005.003.008.042.151.039.379.004.655l-.3-.103c.11-.27.212-.461.293-.56m1.06 1.77c-.26 1.018-.432 2.2-.5 2.809l-1.222.089c.246-.65.729-1.989.992-3.134zm.974-1.274c.04.127.004.43-.084.837l-.24-.083c.118-.361.231-.625.324-.754m-.517 1.421.268.087c-.178.659-.428 1.45-.701 2.223.108-.867.267-1.667.433-2.31m1.574.507c-.17.716-.27 1.511-.32 1.993l-1.277.093c.21-.587.526-1.511.753-2.358zm.892-1.032c.014.024.032.061.053.113.041.104.028.296-.021.54l-.287-.099c.095-.288.186-.473.255-.554m-.43 1.181.296.096c-.15.483-.361 1.031-.567 1.509.076-.649.172-1.181.271-1.605m1.405.453c-.082.346-.151.761-.207 1.247l-1.018.074c.166-.384.402-.965.576-1.53zm.806-.765c.022.025.056.073.097.163.011.045 0 .131-.029.247l-.241-.083c.07-.181.131-.283.173-.327m-.345.914.217.07c-.102.256-.231.547-.377.845.049-.369.104-.67.16-.915m2.654.856-2.332.17c.123-.253.251-.534.357-.807zm-1.553-3.059c.861-.021 1.741.028 2.19.572.614.743.309 1.624.036 2.131l-.16-.055zm-2.011-.631c-.13-.123-.038-.378.127-.672l.691.851c-.37-.006-.68-.047-.818-.179m.477-2.872c.218.275.003.717-.281 1.177l-.971-1.245c.616-.086 1.12-.1 1.252.068m6.756 7.239-2.535-.874c.358-.711.578-1.745-.126-2.597-.659-.798-1.853-.776-2.928-.736l-1.133-1.451c.4-.63.786-1.32.344-1.88-.293-.372-1.027-.358-1.971-.206l-.806-1.034c.061-.209.036-.441-.092-.637-.113-.171-.286-.288-.487-.329-.2-.041-.405-.002-.576.111-.172.112-.289.285-.33.486s-.002.406.111.577c.147.223.392.345.642.345.058 0 .115-.009.173-.022l.534.658c-.217.044-.44.091-.668.139-1.186.25-2.977.628-3.176.22-.058-.12-.202-.17-.321-.112-.12.058-.17.203-.112.322.363.747 1.913.42 3.708.041.287-.061.601-.127.913-.187l1.406 1.729c-.308.512-.532 1.041-.135 1.419.315.3.875.326 1.539.308l1.844 2.268-1.276-.439c.061-.25.077-.462.018-.593-.195-.435-.434-.493-.6-.468-.22.036-.408.26-.566.665l-.667-.23c.073-.36.093-.674.015-.873-.162-.411-.386-.47-.543-.447-.279.039-.498.408-.67.907l-.864-.298c.111-.527.155-.966.071-1.182-.137-.348-.351-.373-.467-.357-.29.041-.544.508-.755 1.143l-.79-.273c.054-.386.064-.717.001-.942-.111-.393-.334-.435-.458-.424-.256.022-.513.382-.751.95l-1.068-.368c-.006-.02-.009-.041-.017-.061-.075-.191-.22-.341-.407-.423-.188-.082-.397-.086-.588-.011s-.341.219-.423.407-.086.396-.011.587.219.341.407.423c.1.044.204.065.306.065.208 0 .408-.087.553-.238l.995.321c-.329 1.051-.599 2.462-.74 3.811-.95 2.666-.215 3.974.895 5.948.049.088.101.18.152.272l-2.307.168s0 0-.001 0c-.354 0-.894.233-1.304.753-.412.522-.82 1.488-.427 3.124.027.115.133.193.251.184l2.276-.166c-.26 1.383-.344 2.544.195 3.211.287.355.73.535 1.316.536h.005c.092 0 .181-.007.269-.019l10.134-.739c.664-.003 1.236-.34 1.612-.949.793-1.281.625-3.542-.416-5.625-.331-.66-.654-1.236-.94-1.744-1.02-1.815-1.62-2.893-1.055-4.933l2.108 2.593c.047.058.117.089.187.089.052 0 .105-.017.149-.053.104-.082.121-.232.04-.336l-2.217-2.842 2.403.774c.024.008.049.012.074.012.1 0 .194-.064.228-.165.042-.125-.025-.26-.15-.303"/><path d="m8.669 12.29.68-.819c.035-.042.041-.101.016-.15s-.077-.077-.132-.073l-.949.072c-.036.003-.071.021-.094.049l-.764.92c-.047.057-.041.141.014.19l.895.793c.025.023.057.035.09.035.004 0 .007 0 .011-.001l.949-.072c.055-.004.101-.041.119-.092.017-.052.002-.11-.039-.146z"/><path d="m10.762 13.103c.025.023.057.035.09.035.004 0 .007 0 .011-.001l.949-.072c.054-.004.101-.041.119-.093.017-.051.002-.109-.039-.145l-.796-.706.68-.819c.035-.042.041-.101.016-.15s-.078-.078-.132-.073l-.949.072c-.036.003-.071.02-.094.049l-.764.92c-.047.057-.041.141.014.189z"/><path d="m15.184 13.386-1.894.135c-.665.058-1.159.646-1.101 1.311s.648 1.159 1.306 1.102l.753-.038 1.111.971c.025.022.057.033.09.033.02 0 .041-.004.06-.014.049-.024.079-.076.076-.131l-.06-.975c.597-.119 1.023-.672.969-1.292-.057-.665-.647-1.159-1.31-1.102"/><path d="m14.243 18.835c.213-.244.318-.556.296-.877-.023-.322-.17-.616-.414-.829-.245-.213-.556-.318-.88-.295l-1.89.161c-.665.047-1.169.626-1.123 1.292.022.321.169.615.414.828.211.184.471.287.744.298l.093.973c.006.054.043.101.096.117.013.004.027.006.04.006.04 0 .078-.017.105-.049l.947-1.131.744-.08c.321-.022.615-.169.828-.414"/><path d="m16.745 19.724c-.017.052-.002.109.039.146l.796.706-.68.819c-.035.042-.041.101-.016.149.024.046.07.074.121.074h.011l.949-.072c.037-.003.071-.021.094-.049l.764-.921c.047-.056.041-.14-.014-.189l-.895-.794c-.027-.024-.065-.037-.101-.034l-.949.073c-.054.004-.101.04-.119.092"/><path d="m15.487 19.762c-.027-.024-.064-.037-.101-.034l-.949.073c-.054.004-.101.04-.119.092-.017.052-.002.109.039.146l.796.706-.68.819c-.035.042-.041.101-.016.15.024.045.071.073.121.073h.011l.949-.072c.037-.003.071-.021.094-.049l.764-.921c.047-.056.041-.14-.014-.189z"/></g></svg>