<?xml version="1.0" encoding="UTF-8" standalone="no"?><!DOCTYPE svg PUBLIC "-//W3C//DTD SVG 1.1//EN" "http://www.w3.org/Graphics/SVG/1.1/DTD/svg11.dtd"><svg width="100%" height="100%" viewBox="0 0 16 16" version="1.1" xmlns="http://www.w3.org/2000/svg" xmlns:xlink="http://www.w3.org/1999/xlink" xml:space="preserve" xmlns:serif="http://www.serif.com/" style="fill-rule:evenodd;clip-rule:evenodd;stroke-linejoin:round;stroke-miterlimit:2;"><rect id="unlock" x="-0" y="-0" width="16" height="16" style="fill:none;"/><path d="M5,7l-0,-2c-0,-0.001 -0,-0.003 -0,-0.004c-0,-1.646 1.354,-3 3,-3c1.27,-0 2.409,0.806 2.83,2.004l1.044,-0c-0.459,-1.756 -2.057,-2.99 -3.872,-2.99c-2.191,-0 -3.996,1.799 -4.002,3.99l-0,2l-1,-0l-1,1l-0,6l1,1l10,-0l1,-1l-0,-6l-1,-1l-8,-0Zm-2,1l10,-0l-0,6l-10,-0l-0,-6Z"/></svg>