<?xml version="1.0" encoding="UTF-8" standalone="no"?><!DOCTYPE svg PUBLIC "-//W3C//DTD SVG 1.1//EN" "http://www.w3.org/Graphics/SVG/1.1/DTD/svg11.dtd"><svg width="100%" height="100%" viewBox="0 0 16 16" version="1.1" xmlns="http://www.w3.org/2000/svg" xmlns:xlink="http://www.w3.org/1999/xlink" xml:space="preserve" xmlns:serif="http://www.serif.com/" style="fill-rule:evenodd;clip-rule:evenodd;stroke-linejoin:round;stroke-miterlimit:2;"><rect id="zoom-fit" x="0" y="-0" width="16" height="16" style="fill:none;"/><path d="M2,5l0,-3l3,0l-0,1l-2,-0l-0,2l-1,-0Zm9,-3l3,0l0,3l-1,-0l0,-2l-2,-0l-0,-1Zm3,9l0,3.014l-3,-0l-0,-1l2,-0l0,-2.014l1,-0Zm-9,3.014l-3,-0l0,-3.014l1,-0l-0,2.014l2,-0l-0,1Z"/></svg>