<?xml version="1.0" encoding="UTF-8" standalone="no"?><!DOCTYPE svg PUBLIC "-//W3C//DTD SVG 1.1//EN" "http://www.w3.org/Graphics/SVG/1.1/DTD/svg11.dtd"><svg width="100%" height="100%" viewBox="0 0 16 16" version="1.1" xmlns="http://www.w3.org/2000/svg" xmlns:xlink="http://www.w3.org/1999/xlink" xml:space="preserve" xmlns:serif="http://www.serif.com/" style="fill-rule:evenodd;clip-rule:evenodd;stroke-linejoin:round;stroke-miterlimit:2;"><rect id="zoom-out" x="0" y="-0" width="16" height="16" style="fill:none;"/><path d="M12.019,6.136c0.095,1.417 -0.36,2.817 -1.27,3.908l4.26,4.26l-0.7,0.71l-4.26,-4.27c-0.993,0.828 -2.245,1.282 -3.538,1.282c-3.028,0 -5.52,-2.492 -5.52,-5.52c0,-3.028 2.492,-5.52 5.52,-5.52c2.889,0 5.314,2.268 5.508,5.15Zm-5.45,4.888c1.192,-0.002 2.336,-0.477 3.18,-1.32l-0.04,0.02c0.862,-0.842 1.352,-1.995 1.36,-3.2c-0,-2.469 -2.032,-4.5 -4.5,-4.5c-2.469,-0 -4.5,2.031 -4.5,4.5c-0,2.468 2.031,4.5 4.5,4.5Zm-2.54,-4.98l5,-0l-0,1l-5,-0l-0,-1Z"/></svg>